<?xml version="1.0" standalone="no"?>
<!DOCTYPE svg PUBLIC "-//W3C//DTD SVG 20010904//EN"
 "http://www.w3.org/TR/2001/REC-SVG-20010904/DTD/svg10.dtd">
<svg version="1.0" xmlns="http://www.w3.org/2000/svg"
 width="1472.000000pt" height="1472.000000pt" viewBox="0 0 1472.000000 1472.000000"
 preserveAspectRatio="xMidYMid meet">
<metadata>
Created by potrace 1.14, written by Peter Selinger 2001-2017
</metadata>
<g transform="translate(0.000000,1472.000000) scale(0.100000,-0.100000)"
fill="#000000" stroke="none">
<path d="M10173 14257 c-254 -254 -564 -563 -688 -686 -124 -124 -225 -226
-225 -226 0 -2 -123 -125 -124 -125 -1 0 -588 -585 -1305 -1300 -718 -715
-1307 -1300 -1310 -1300 -3 0 -6 705 -6 1568 l0 1567 -135 1 c-74 0 -139 2
-145 4 -5 1 -12 1 -15 0 -20 -8 -260 -4 -260 5 0 7 -3 6 -8 0 -6 -9 -435 -14
-467 -5 -5 1 -13 1 -17 0 -5 -1 -14 -3 -20 -4 -17 -1 -19 -5014 -3 -5019 5 -2
1135 -3 2510 -3 l2500 1 0 545 0 545 -1573 3 -1574 2 2056 2055 2057 2054
-391 391 c-215 214 -392 390 -393 389 -1 0 -210 -208 -464 -462z"/>
<path d="M4363 6372 c-13 -2 -23 -11 -24 -20 -1 -21 -1 -1350 0 -1377 1 -20 8
-20 1456 -19 800 0 1455 -1 1455 -4 0 -2 -887 -891 -1971 -1974 l-1971 -1970
503 -504 504 -503 170 169 c93 94 169 170 170 170 0 0 638 636 1417 1413 779
776 1501 1495 1603 1596 102 102 185 188 185 192 0 4 4 9 10 11 5 2 99 92 208
200 l198 197 -1 -1442 c0 -793 1 -1450 4 -1459 3 -17 45 -18 702 -18 384 0
700 4 703 9 3 4 3 11 -1 15 -8 8 -8 130 0 143 4 6 3 13 0 17 -10 9 -9 206 0
206 5 0 5 5 2 10 -9 15 -10 104 -1 118 4 7 3 12 -2 12 -5 0 -6 20 -2 45 4 25
4 45 1 45 -3 0 -6 56 -6 125 0 69 4 125 8 125 5 0 5 5 2 10 -9 15 -10 104 -1
118 4 7 3 12 -2 12 -5 0 -6 20 -2 45 4 25 4 45 1 45 -3 0 -6 56 -6 125 0 69 4
125 8 125 5 0 5 5 2 10 -9 15 -10 104 -1 118 4 7 4 12 -1 12 -9 0 -9 103 1
118 3 5 3 12 -1 16 -8 8 -8 130 0 143 4 6 4 13 0 17 -8 8 -8 130 0 143 4 6 4
13 0 17 -8 8 -8 130 0 143 4 6 3 13 0 17 -10 9 -9 206 0 206 5 0 5 5 2 10 -9
15 -10 104 -1 118 4 7 3 12 -2 12 -5 0 -6 20 -2 45 4 25 4 45 1 45 -3 0 -6 56
-6 125 0 69 4 125 8 125 5 0 5 5 2 10 -9 15 -10 104 -1 118 4 7 3 12 -2 12 -5
0 -6 20 -2 45 4 25 4 45 1 45 -3 0 -6 56 -6 125 0 69 4 125 8 125 5 0 5 5 2
10 -9 15 -10 104 -1 118 4 7 3 12 -2 12 -5 0 -6 20 -2 45 4 25 4 45 1 45 -3 0
-6 56 -6 125 0 69 4 125 8 125 5 0 5 5 2 10 -9 15 -10 104 -1 118 4 7 3 12 -2
12 -5 0 -6 20 -2 45 4 25 4 45 1 45 -6 0 -4 113 3 143 2 9 1 17 -2 17 -4 0 -7
56 -7 125 0 69 4 125 8 125 5 0 5 5 2 10 -9 15 -10 104 -1 118 4 7 3 12 -2 12
-5 0 -6 20 -2 45 4 25 4 45 1 45 -6 0 -4 113 3 143 2 9 1 17 -2 17 -4 0 -7 56
-7 125 0 69 4 125 8 125 5 0 5 5 2 10 -9 15 -10 104 -1 118 4 7 4 12 -1 12 -9
0 -8 113 1 136 3 8 1 14 -5 14 -6 0 -7 5 -4 10 4 6 -16 10 -52 11 -210 2
-5242 3 -5260 1z"/>
</g>
</svg>
